# xmcd
#
# Track frame offsets:
#	150
#	17307
#	32832
#
# Disc length: 754 seconds
#
# Revision: 1
# Processed by: cddbd v1.5PL3 Copyright (c) Steve Scherf et al.
# Submitted via: CDex 1.50Beta5
#
DISCID=1502f003
DTITLE=Acidman - Slow View
DYEAR=2003
DGENRE=Rock
TTITLE0=飛光
TTITLE1=Slow View (Instrumental)
TTITLE2=静かなる嘘と調和
EXTD=
EXTT0=
EXTT1=
EXTT2=
PLAYORDER=
